<mxfile host="app.diagrams.net" agent="Mozilla/5.0 (Windows NT 10.0; Win64; x64) AppleWebKit/537.36 (KHTML, like Gecko) Chrome/137.0.0.0 Safari/537.36" version="27.1.6">
  <diagram name="PÃ¡gina-1" id="fEl0EdWapYMMZy7MPvV6">
    <mxGraphModel dx="872" dy="1608" grid="1" gridSize="10" guides="1" tooltips="1" connect="1" arrows="1" fold="1" page="1" pageScale="1" pageWidth="827" pageHeight="1169" math="0" shadow="0">
      <root>
        <mxCell id="0" />
        <mxCell id="1" parent="0" />
        <mxCell id="kU9Rs-ZYgwPigm9_eBaV-3" style="edgeStyle=orthogonalEdgeStyle;rounded=0;orthogonalLoop=1;jettySize=auto;html=1;entryX=0;entryY=0.5;entryDx=0;entryDy=0;" edge="1" parent="1" source="kU9Rs-ZYgwPigm9_eBaV-1" target="kU9Rs-ZYgwPigm9_eBaV-2">
          <mxGeometry relative="1" as="geometry" />
        </mxCell>
        <mxCell id="kU9Rs-ZYgwPigm9_eBaV-1" value="cliente&lt;div&gt;&lt;br&gt;&lt;/div&gt;" style="shape=umlActor;verticalLabelPosition=bottom;verticalAlign=top;html=1;outlineConnect=0;" vertex="1" parent="1">
          <mxGeometry x="220" y="110" width="50" height="80" as="geometry" />
        </mxCell>
        <mxCell id="kU9Rs-ZYgwPigm9_eBaV-5" value="" style="edgeStyle=orthogonalEdgeStyle;rounded=0;orthogonalLoop=1;jettySize=auto;html=1;" edge="1" parent="1" source="kU9Rs-ZYgwPigm9_eBaV-2" target="kU9Rs-ZYgwPigm9_eBaV-4">
          <mxGeometry relative="1" as="geometry" />
        </mxCell>
        <mxCell id="kU9Rs-ZYgwPigm9_eBaV-6" value="" style="edgeStyle=orthogonalEdgeStyle;rounded=0;orthogonalLoop=1;jettySize=auto;html=1;" edge="1" parent="1" source="kU9Rs-ZYgwPigm9_eBaV-2" target="kU9Rs-ZYgwPigm9_eBaV-4">
          <mxGeometry relative="1" as="geometry" />
        </mxCell>
        <mxCell id="kU9Rs-ZYgwPigm9_eBaV-8" value="" style="edgeStyle=orthogonalEdgeStyle;rounded=0;orthogonalLoop=1;jettySize=auto;html=1;" edge="1" parent="1" source="kU9Rs-ZYgwPigm9_eBaV-2" target="kU9Rs-ZYgwPigm9_eBaV-7">
          <mxGeometry relative="1" as="geometry" />
        </mxCell>
        <mxCell id="kU9Rs-ZYgwPigm9_eBaV-20" style="edgeStyle=orthogonalEdgeStyle;rounded=0;orthogonalLoop=1;jettySize=auto;html=1;" edge="1" parent="1" source="kU9Rs-ZYgwPigm9_eBaV-2">
          <mxGeometry relative="1" as="geometry">
            <mxPoint x="397" y="270" as="targetPoint" />
          </mxGeometry>
        </mxCell>
        <mxCell id="kU9Rs-ZYgwPigm9_eBaV-2" value="realiza un pedido&lt;div&gt;&lt;br&gt;&lt;/div&gt;" style="ellipse;whiteSpace=wrap;html=1;" vertex="1" parent="1">
          <mxGeometry x="354" y="110" width="86" height="70" as="geometry" />
        </mxCell>
        <mxCell id="kU9Rs-ZYgwPigm9_eBaV-35" value="" style="edgeStyle=orthogonalEdgeStyle;rounded=0;orthogonalLoop=1;jettySize=auto;html=1;exitX=0.5;exitY=0;exitDx=0;exitDy=0;" edge="1" parent="1" source="kU9Rs-ZYgwPigm9_eBaV-4" target="kU9Rs-ZYgwPigm9_eBaV-34">
          <mxGeometry relative="1" as="geometry">
            <mxPoint x="560" y="35" as="sourcePoint" />
          </mxGeometry>
        </mxCell>
        <mxCell id="kU9Rs-ZYgwPigm9_eBaV-4" value="&lt;div&gt;combo&lt;/div&gt;" style="ellipse;whiteSpace=wrap;html=1;" vertex="1" parent="1">
          <mxGeometry x="500" y="40" width="86" height="70" as="geometry" />
        </mxCell>
        <mxCell id="kU9Rs-ZYgwPigm9_eBaV-42" style="edgeStyle=orthogonalEdgeStyle;rounded=0;orthogonalLoop=1;jettySize=auto;html=1;exitX=0.5;exitY=1;exitDx=0;exitDy=0;dashed=1;dashPattern=8 8;" edge="1" parent="1" source="kU9Rs-ZYgwPigm9_eBaV-7">
          <mxGeometry relative="1" as="geometry">
            <mxPoint x="640" y="320" as="targetPoint" />
          </mxGeometry>
        </mxCell>
        <mxCell id="kU9Rs-ZYgwPigm9_eBaV-7" value="&lt;div&gt;producto&lt;/div&gt;" style="ellipse;whiteSpace=wrap;html=1;" vertex="1" parent="1">
          <mxGeometry x="500" y="170" width="86" height="70" as="geometry" />
        </mxCell>
        <mxCell id="kU9Rs-ZYgwPigm9_eBaV-16" value="Extends" style="endArrow=block;endSize=16;endFill=0;html=1;rounded=0;" edge="1" parent="1">
          <mxGeometry width="160" relative="1" as="geometry">
            <mxPoint x="586" y="204.5" as="sourcePoint" />
            <mxPoint x="710" y="170" as="targetPoint" />
          </mxGeometry>
        </mxCell>
        <mxCell id="kU9Rs-ZYgwPigm9_eBaV-17" value="Extends" style="endArrow=block;endSize=16;endFill=0;html=1;rounded=0;" edge="1" parent="1">
          <mxGeometry width="160" relative="1" as="geometry">
            <mxPoint x="586" y="77.25" as="sourcePoint" />
            <mxPoint x="710" y="130" as="targetPoint" />
          </mxGeometry>
        </mxCell>
        <mxCell id="kU9Rs-ZYgwPigm9_eBaV-18" value="item" style="ellipse;whiteSpace=wrap;html=1;" vertex="1" parent="1">
          <mxGeometry x="700" y="115" width="86" height="70" as="geometry" />
        </mxCell>
        <mxCell id="kU9Rs-ZYgwPigm9_eBaV-33" value="" style="edgeStyle=orthogonalEdgeStyle;rounded=0;orthogonalLoop=1;jettySize=auto;html=1;" edge="1" parent="1" source="kU9Rs-ZYgwPigm9_eBaV-21" target="kU9Rs-ZYgwPigm9_eBaV-32">
          <mxGeometry relative="1" as="geometry" />
        </mxCell>
        <mxCell id="kU9Rs-ZYgwPigm9_eBaV-21" value="se registra una venta" style="ellipse;whiteSpace=wrap;html=1;" vertex="1" parent="1">
          <mxGeometry x="354" y="270" width="86" height="70" as="geometry" />
        </mxCell>
        <mxCell id="kU9Rs-ZYgwPigm9_eBaV-23" style="edgeStyle=orthogonalEdgeStyle;rounded=0;orthogonalLoop=1;jettySize=auto;html=1;entryX=1;entryY=0.5;entryDx=0;entryDy=0;" edge="1" parent="1" source="kU9Rs-ZYgwPigm9_eBaV-22" target="kU9Rs-ZYgwPigm9_eBaV-32">
          <mxGeometry relative="1" as="geometry" />
        </mxCell>
        <mxCell id="kU9Rs-ZYgwPigm9_eBaV-22" value="vendedor" style="shape=umlActor;verticalLabelPosition=bottom;verticalAlign=top;html=1;outlineConnect=0;" vertex="1" parent="1">
          <mxGeometry x="500" y="415" width="30" height="60" as="geometry" />
        </mxCell>
        <mxCell id="kU9Rs-ZYgwPigm9_eBaV-32" value="actualiza el stock disponible" style="ellipse;whiteSpace=wrap;html=1;" vertex="1" parent="1">
          <mxGeometry x="354" y="410" width="86" height="70" as="geometry" />
        </mxCell>
        <mxCell id="kU9Rs-ZYgwPigm9_eBaV-34" value="agrega o modificia combo" style="ellipse;whiteSpace=wrap;html=1;" vertex="1" parent="1">
          <mxGeometry x="400" y="-110" width="86" height="70" as="geometry" />
        </mxCell>
        <mxCell id="kU9Rs-ZYgwPigm9_eBaV-37" value="gerente" style="shape=umlActor;verticalLabelPosition=bottom;verticalAlign=top;html=1;outlineConnect=0;" vertex="1" parent="1">
          <mxGeometry x="300" y="-110" width="30" height="60" as="geometry" />
        </mxCell>
        <mxCell id="kU9Rs-ZYgwPigm9_eBaV-38" value="" style="endArrow=classic;html=1;rounded=0;entryX=-0.012;entryY=0.371;entryDx=0;entryDy=0;entryPerimeter=0;" edge="1" parent="1" target="kU9Rs-ZYgwPigm9_eBaV-34">
          <mxGeometry width="50" height="50" relative="1" as="geometry">
            <mxPoint x="330" y="-80" as="sourcePoint" />
            <mxPoint x="380" y="-130" as="targetPoint" />
          </mxGeometry>
        </mxCell>
        <mxCell id="kU9Rs-ZYgwPigm9_eBaV-43" value="agregar/quitar ingrediente" style="ellipse;whiteSpace=wrap;html=1;" vertex="1" parent="1">
          <mxGeometry x="600" y="320" width="86" height="70" as="geometry" />
        </mxCell>
      </root>
    </mxGraphModel>
  </diagram>
</mxfile>
